<svg width="333" height="240" viewBox="0 0 333 240" fill="none" xmlns="http://www.w3.org/2000/svg">
<path d="M332.308 203.077C332.308 212.87 328.418 222.261 321.493 229.185C314.569 236.11 305.177 240 295.385 240H36.9231C27.1305 240 17.7389 236.11 10.8145 229.185C3.8901 222.261 0 212.87 0 203.077V36.9231C0 27.1305 3.8901 17.7389 10.8145 10.8145C17.7389 3.8901 27.1305 0 36.9231 0H295.385C305.177 0 314.569 3.8901 321.493 10.8145C328.418 17.7389 332.308 27.1305 332.308 36.9231V203.077Z" fill="#006A4E"/>
<path d="M123.693 184.615C159.379 184.615 188.308 155.686 188.308 120C188.308 84.3139 159.379 55.3846 123.693 55.3846C88.0064 55.3846 59.0771 84.3139 59.0771 120C59.0771 155.686 88.0064 184.615 123.693 184.615Z" fill="#F42A41"/>
</svg>
