<svg width="72" height="96" viewBox="0 0 72 96" fill="none" xmlns="http://www.w3.org/2000/svg">
<path d="M33.0278 0.0159826C31.5505 0.0533159 30.0838 0.179983 28.6278 0.395983C26.4678 0.611983 24.3078 1.69598 21.9278 2.77598C18.8998 4.07198 15.8678 5.37198 13.0558 5.58798C8.2958 7.09998 6.78381 9.26398 5.48781 10.992C5.48781 11.208 5.2718 11.424 5.2718 11.424C3.5398 14.884 3.3238 18.344 3.9718 21.804C4.6198 23.968 5.4838 25.92 6.1318 27.864C7.6518 31.976 9.1638 35.864 9.8118 40.408C10.4638 41.708 11.1078 43.436 11.5398 45.168C12.6198 48.628 13.7078 52.52 16.9518 55.548L16.9758 55.536C17.0438 55.612 17.0958 55.696 17.1678 55.764L17.2518 55.724L17.1718 53.388C19.7638 49.492 23.4358 46.896 28.6278 45.816C30.7078 45.376 32.9518 45.216 35.2798 45.304C37.7032 45.3701 40.1134 45.6865 42.4718 46.248C48.3118 47.76 52.8518 50.792 53.0718 53.388C53.1798 54.804 53.2318 56.168 53.1998 57.532C53.1971 57.788 53.1878 58.0453 53.1718 58.304L53.7158 58.576C54.0432 58.3866 54.3247 58.1271 54.5398 57.816L54.5518 57.804L54.5758 57.772C54.7358 57.556 54.8758 57.276 55.0158 56.996C55.0958 56.848 55.1678 56.652 55.2398 56.48C56.0598 54.632 56.6878 51.868 57.3918 48.628C57.6078 47.548 57.8318 46.68 58.0438 45.816C59.7758 41.924 62.1518 38.464 64.5318 35.216C68.4238 29.816 72.0998 24.836 71.6678 18.996C64.5318 5.15198 54.5798 2.98798 49.3878 1.90798C48.5238 1.69198 48.0958 1.69198 47.4478 1.47598C42.0958 0.499983 37.4718 -0.108017 33.0278 0.0159826ZM53.1998 57.532C53.2217 56.22 53.1789 54.9078 53.0718 53.6C52.8558 50.788 48.3118 47.76 42.2558 46.248C39.9647 45.7181 37.6293 45.4021 35.2798 45.304C33.1937 45.2354 31.1066 45.4072 29.0598 45.816C24.0838 46.896 20.1958 49.496 17.8158 53.384L18.0198 59.108C20.6878 57.688 24.9518 55.612 30.5798 55.108C30.8398 55.088 31.1238 55.088 31.3958 55.072C31.8638 55.02 32.4598 54.896 33.1718 54.896C39.5998 54.896 46.2438 57.032 52.6798 61.488C52.8318 60.3893 52.9251 59.292 52.9598 58.196L53.1398 58.288C53.1478 58.036 53.1958 57.78 53.1998 57.528V57.532ZM33.0238 0.231983C33.5198 0.215983 34.0398 0.271983 34.5398 0.275983C33.6198 0.267983 32.7038 0.289316 31.7918 0.339983C32.2038 0.315983 32.6118 0.243983 33.0238 0.231983ZM29.7598 0.519983C29.4558 0.555983 29.1478 0.571983 28.8438 0.615983C25.5758 1.08398 21.7478 3.41998 17.8438 4.79598C19.2638 4.26798 20.6998 3.61198 22.1438 2.99598C24.3038 1.91598 26.6838 0.831983 28.6278 0.615983C29.0038 0.559983 29.3838 0.563983 29.7598 0.519983ZM28.8438 1.47998C29.4918 1.47998 30.3598 1.47998 31.0078 1.69598C30.5223 1.58535 30.0203 1.56636 29.5278 1.63998C29.9595 1.67323 30.3847 1.76473 30.7918 1.91198C33.1118 5.91198 29.0878 23.028 28.0758 34.508C28.6053 38.1491 29.2228 41.7768 29.9278 45.388C27.1158 38.252 24.3038 25.704 23.8678 15.972C23.6518 12.08 23.8718 8.61598 24.7398 6.02398C25.5998 3.41998 26.8998 1.69198 28.8398 1.47598L28.8438 1.47998ZM41.3878 2.55998C38.1478 11 37.7158 27 37.4998 31.976C37.2838 34.136 37.4998 38.896 37.7158 42.356C37.7158 43.22 37.9318 44.084 37.9318 44.952C37.9318 44.084 37.7158 43.436 37.7158 42.572C35.9838 29.596 33.8198 14.024 41.3878 2.55998ZM54.7958 4.07998C53.7158 12.728 49.1758 16.84 47.6638 25.28C47.2318 31.984 46.3638 39.768 46.1478 46.472C45.9318 39.768 46.1478 32.632 47.2278 25.492C48.3078 18.14 50.6878 10.784 54.7958 4.07998ZM14.1158 6.59998C15.008 6.59151 15.8685 6.92999 16.5158 7.54398L16.4598 7.51598C16.9918 7.88398 17.5238 8.35198 18.0318 9.05198C17.2158 12.924 19.0518 21.18 18.1918 27.732C18.4958 33.924 18.4758 40.452 21.5878 45.568C17.6678 39.528 16.8838 31.82 16.2998 24.624C15.8478 20.264 15.4838 16.236 14.4438 13.012C13.8678 11.792 13.3678 10.712 12.9078 9.72398C12.8118 9.57598 12.7318 9.40798 12.6278 9.26798C12.2353 8.86107 12.0048 8.32482 11.9798 7.75998C11.9798 7.54398 12.1918 7.11198 12.4118 7.11198C12.6278 6.89598 13.0558 6.88798 13.2718 6.67198C13.5485 6.61846 13.834 6.59433 14.1158 6.59998ZM8.72381 9.05198C8.48381 9.13198 8.3558 9.21598 8.1638 9.29598C8.8718 9.15998 9.6118 9.43198 10.2438 10.568C9.4918 14.136 11.9878 24.044 11.9558 30.984C13.2078 38.376 14.1558 46.384 18.2438 51.444C13.4838 46.04 11.5398 36.524 10.0278 28.52C8.7278 22.248 7.6438 16.84 5.4838 15.112C5.2678 14.68 5.0518 14.46 5.0518 14.028C5.0518 13.38 5.0518 12.512 5.4838 11.648C4.3758 14.184 3.8638 16.716 4.0038 19.252C3.83937 16.6325 4.34891 14.0146 5.4838 11.648C5.4838 11.432 5.69981 11.432 5.69981 11.216C5.74781 11.152 5.8238 11.076 5.8758 11.012C6.10861 10.6147 6.41549 10.2657 6.77981 9.98398C6.99981 9.73998 7.1638 9.50398 7.4158 9.25598C7.2038 9.47998 7.0638 9.69598 6.8798 9.91598C6.9878 9.84398 7.0878 9.76798 7.2158 9.70798C7.4063 9.498 7.63927 9.33092 7.89926 9.21782C8.15925 9.10472 8.44031 9.04819 8.72381 9.05198ZM7.2158 9.70798C7.1998 9.73598 7.1838 9.74798 7.1678 9.77998L7.3158 9.65998L7.2158 9.70798ZM66.2558 14.244L66.2358 14.304C66.3878 14.284 66.5358 14.236 66.6878 14.244C66.5398 14.236 66.3838 14.284 66.2278 14.324C62.7758 24.892 58.6798 35.46 54.5838 46.028L54.5758 46.04C54.2278 47.9 53.6398 49.576 52.4158 50.8C54.1478 48.852 54.3598 46.036 54.5758 42.576C54.7918 39.332 54.7918 35.872 56.5238 32.408C56.5238 32.196 56.5278 31.988 56.7358 31.772L56.7398 31.764C57.1278 30.352 57.5478 29.008 58.0078 27.692C59.6798 22.532 62.5678 15.028 66.0598 14.332C66.1238 14.308 66.1958 14.256 66.2598 14.244M21.4958 64.84L20.1998 65.272C20.8478 66.14 21.2798 66.792 21.7118 67.004C22.1732 67.2721 22.6944 67.4206 23.2278 67.436C23.4438 67.436 23.8718 67.436 24.0878 67.22L27.3358 66.14C27.5518 66.14 27.7678 65.924 27.9838 65.924C28.4158 65.924 28.6318 65.924 29.0638 66.14L30.1478 67.22L31.2278 67.004C30.7958 66.356 30.1478 65.712 29.7158 65.496C29.2838 65.28 28.8478 65.056 28.1998 65.056H27.7678L24.3038 66.356H23.6598C23.2238 66.356 22.7958 66.356 22.5798 66.14C22.3638 65.924 21.9278 65.492 21.4958 64.84ZM11.1118 67.004C10.0318 67.652 8.5158 68.736 6.3518 69.6C4.1878 70.464 2.4598 71.332 1.5918 72.196C0.730471 73.06 0.299805 73.9253 0.299805 74.792C0.299805 75.224 0.515804 75.444 0.947804 75.66C1.1638 75.876 1.5998 75.876 1.8158 76.092C4.83246 77.4012 7.78999 78.8426 10.6798 80.412C11.1158 80.628 11.5478 81.064 11.7678 81.28C11.9838 81.496 12.1958 81.496 12.4118 81.496C12.8478 81.496 13.4918 81.284 13.9238 80.848C14.3558 80.416 14.5731 79.9826 14.5758 79.548C14.5758 79.116 14.3558 78.904 13.9238 78.688C13.9238 78.688 12.1918 77.82 9.1638 76.524C7.53707 75.819 5.95064 75.0245 4.41181 74.144C5.05981 73.064 6.35581 72.196 8.30381 71.332C10.4638 70.468 11.9838 69.6 12.6278 68.952C12.8438 68.736 12.8438 68.52 12.8438 68.304C12.793 67.9769 12.6421 67.6737 12.4118 67.436C12.1147 67.168 11.7318 67.0148 11.3318 67.004H11.1118ZM56.0998 67.004C55.7742 67.0555 55.4724 67.2064 55.2358 67.436C55.0198 67.868 54.7998 68.088 54.7998 68.304V68.52C55.4478 69.168 56.3198 69.6 57.6158 70.032C58.6958 70.248 59.7758 70.684 60.8598 70.9C62.1558 71.332 63.0211 71.98 63.4558 72.844V73.064C63.4558 73.28 63.0198 73.712 62.1558 74.144C61.7238 74.36 60.8558 75.012 59.7758 75.876C58.6958 76.524 58.0438 77.168 57.3958 77.384C56.5318 77.82 55.8838 78.252 55.6678 78.688C55.4518 78.904 55.4518 79.116 55.4518 79.332C55.4518 79.764 55.6678 79.764 55.8838 80.196C56.0998 80.628 56.5318 80.636 56.7478 80.636C56.9638 80.636 57.1798 80.412 57.3958 80.412C58.4758 79.764 59.9958 78.9 61.7238 77.384C63.6678 75.872 65.1838 74.792 66.0518 74.144C66.9158 73.712 67.3438 73.276 67.3438 72.624C67.3438 72.412 67.3438 71.98 66.9118 71.764C65.3998 70.032 63.2398 68.956 60.6438 68.088C60.2118 67.872 59.5638 67.652 58.2638 67.436C57.6158 67.22 56.9638 67.004 56.5318 67.004H56.0998ZM44.2038 70.244C43.1238 70.244 42.2558 70.468 41.6078 71.116C40.7438 71.764 40.5278 72.844 40.7438 74.144C40.7438 75.224 41.1758 76.088 41.8238 76.956C42.4718 77.824 43.3398 78.256 44.2038 78.256C44.8518 78.256 45.2838 78.032 45.9358 77.816C47.0158 77.168 47.4518 76.088 47.4518 74.144C47.4518 72.628 47.0158 71.548 46.3678 70.904C45.7357 70.4586 44.9769 70.2246 44.2038 70.244ZM26.2518 70.464C25.1718 70.464 24.3078 70.684 23.6598 71.332C22.7918 71.98 22.5798 73.06 22.7958 74.36C22.7958 75.44 23.2238 76.304 23.8758 77.168C24.5278 78.032 25.3878 78.472 26.2518 78.472C26.9038 78.472 27.3358 78.248 27.9838 78.032C29.0638 77.384 29.4958 76.304 29.4958 74.36C29.4958 72.628 29.0638 71.548 28.4158 71.12C27.7848 70.6754 27.0275 70.4454 26.2558 70.464H26.2518ZM26.2518 73.064C26.9038 73.064 27.3358 73.496 27.3358 74.144C27.3358 74.792 26.6838 75.224 26.2558 75.224C25.6038 75.224 25.1758 74.792 25.1758 74.144C25.1758 73.496 25.6038 73.064 26.2558 73.064M43.7758 73.28C44.4238 73.28 44.8598 73.708 44.8598 74.36C44.8598 74.792 44.4238 75.44 43.7798 75.44C43.1278 75.44 42.6998 75.008 42.6998 74.36C42.6998 73.712 43.1238 73.28 43.7758 73.28ZM32.9678 81.712L33.6158 83.008C33.8385 83.4169 34.1309 83.7837 34.4798 84.092C34.6958 84.308 35.1318 84.74 35.5598 84.74H35.9958C36.4278 84.74 36.6398 84.74 36.8558 84.524C37.0718 84.308 37.5118 84.308 37.7278 84.092L38.3718 83.444C38.5878 83.228 38.8038 83.008 38.8038 82.792C39.0198 82.576 39.0198 82.36 39.2358 82.144C39.2358 81.928 39.4518 81.712 39.4518 81.712C39.2358 82.144 38.8038 82.576 38.5878 83.008C38.1558 83.224 37.9438 83.66 37.5078 83.66C37.0798 83.876 36.6438 83.876 36.2118 83.876C35.7798 83.876 35.3478 83.876 35.1318 83.66C34.6998 83.66 34.4798 83.444 34.2638 83.228L33.6158 82.576C33.3998 82.36 33.1838 81.928 32.9678 81.712ZM29.5038 85.824C24.9598 85.824 22.1518 91.88 15.6638 86.472C13.9358 97.072 26.6958 97.936 32.1038 93.392C35.7838 90.152 34.6958 85.608 29.5038 85.824ZM40.9678 85.824C35.7798 85.608 34.6958 90.152 38.3758 93.396C43.7798 97.936 56.5358 97.068 54.8078 86.472C48.3198 91.88 45.7278 85.824 40.9678 85.824Z" fill="black"/>
</svg>
