<svg width="320" height="240" viewBox="0 0 320 240" fill="none" xmlns="http://www.w3.org/2000/svg">
<path fill-rule="evenodd" clip-rule="evenodd" d="M0 0V240H320V0H0Z" fill="#012169"/>
<mask id="mask0_2060_30" style="mask-type:luminance" maskUnits="userSpaceOnUse" x="0" y="0" width="320" height="240">
<path fill-rule="evenodd" clip-rule="evenodd" d="M0 0V240H320V0H0Z" fill="white"/>
</mask>
<g mask="url(#mask0_2060_30)">
<path d="M-35.6299 222.85L34.7901 252.64L321.59 32.38L358.74 -11.88L283.44 -21.83L166.46 73.08L72.3001 137.04L-35.6299 222.85Z" fill="white"/>
<path d="M-26 243.72L9.89 261L345.4 -15.99H295.03L-26 243.72Z" fill="#C8102E"/>
<path d="M355.63 222.85L285.21 252.64L-1.58974 32.38L-38.7397 -11.88L36.5602 -21.83L153.54 73.08L247.7 137.04L355.63 222.85Z" fill="white"/>
<path d="M353.23 237.83L317.35 255.11L174.49 136.51L132.13 123.27L-42.3198 -11.73H8.06018L182.4 120.07L228.71 135.95L353.23 237.83Z" fill="#C8102E"/>
<path fill-rule="evenodd" clip-rule="evenodd" d="M197.78 -20H122.22V80H-19.7197V160H122.22V260H197.78V160H340.28V80H197.78V-20Z" fill="#C8102E"/>
<mask id="mask1_2060_30" style="mask-type:luminance" maskUnits="userSpaceOnUse" x="-20" y="-20" width="361" height="280">
<path fill-rule="evenodd" clip-rule="evenodd" d="M197.78 -20H122.22V80H-19.7197V160H122.22V260H197.78V160H340.28V80H197.78V-20Z" fill="white"/>
</mask>
<g mask="url(#mask1_2060_30)">
<path d="M122.22 -20V-40H102.22V-20H122.22ZM197.78 -20H217.78V-40H197.78V-20ZM122.22 80V100H142.22V80H122.22ZM-19.7197 80V60H-39.7197V80H-19.7197ZM-19.7197 160H-39.7197V180H-19.7197V160ZM122.22 160H142.22V140H122.22V160ZM122.22 260H102.22V280H122.22V260ZM197.78 260V280H217.78V260H197.78ZM197.78 160V140H177.78V160H197.78ZM340.28 160V180H360.28V160H340.28ZM340.28 80H360.28V60H340.28V80ZM197.78 80H177.78V100H197.78V80ZM122.22 0H197.78V-40H122.22V0ZM142.22 80V-20H102.22V80H142.22ZM-19.7197 100H122.22V60H-19.7197V100ZM0.280273 160V80H-39.7197V160H0.280273ZM122.22 140H-19.7197V180H122.22V140ZM142.22 260V160H102.22V260H142.22ZM197.78 240H122.22V280H197.78V240ZM177.78 160V260H217.78V160H177.78ZM340.28 140H197.78V180H340.28V140ZM320.28 80V160H360.28V80H320.28ZM197.78 100H340.28V60H197.78V100ZM177.78 -20V80H217.78V-20H177.78Z" fill="white"/>
</g>
</g>
</svg>
