<svg width="77" height="93" viewBox="0 0 77 93" fill="none" xmlns="http://www.w3.org/2000/svg">
<path d="M3.1875 92.2969C2.10938 92.2969 1.26562 92.0625 0.609375 91.6406C0.1875 91.3125 0 90.9844 0 90.7031C0 90.0938 0.703125 89.7656 2.15625 89.7656C3.46875 89.7656 4.64062 89.4375 5.71875 88.7344C6.79688 88.0781 8.20312 86.8125 9.9375 84.8906C15.6562 78.7969 21.3281 69.0938 26.9531 55.8281C27.4219 54.7031 27.6562 54.0938 27.6562 54.0469C27.6562 53.9062 25.7812 53.8594 21.9844 53.8594C15.6562 53.8125 12.4688 53.2031 12.4688 52.0781C12.4688 51.6562 12.7031 51.375 13.125 51.1406C13.9219 50.7188 16.7344 50.4375 21.5156 50.3438L29.2969 50.0625C30.9844 45.8438 32.3438 42.0938 33.4688 38.8594C36.7031 29.7188 39.0938 22.3125 40.7812 16.6875C41.8594 13.0781 43.125 8.4375 44.5312 2.8125C44.7656 1.92188 45.0469 1.26562 45.3281 0.890625C45.8438 0.328125 46.6875 0 47.9062 0C48.5625 0 49.2656 0.09375 50.0156 0.28125C51.3281 0.609375 52.3594 1.03125 53.0625 1.64062C53.6719 2.10938 53.9531 4.07812 53.9531 7.5C53.9531 10.7812 53.7188 15.375 53.1562 21.3281C52.6406 27.5625 52.3594 33.5625 52.2656 39.4219L52.1719 48.5625L55.5 48.8438C57.3281 49.0312 58.7812 49.3125 59.9062 49.7344C61.0312 50.1562 61.5469 50.5781 61.5469 51.0938C61.5469 51.5625 61.1719 51.8906 60.4219 52.0781C59.6719 52.2656 58.2656 52.3594 56.2031 52.3594C54.75 52.3594 53.7656 52.4062 53.25 52.5C52.7344 52.5938 52.4531 52.7812 52.4531 53.0625C52.4531 53.6719 52.7344 55.875 53.2031 59.5781C53.625 62.6719 54.1406 65.4375 54.7969 67.8281C55.7812 71.625 56.7188 73.5469 57.4688 73.5469C57.6562 73.5469 58.0312 73.3125 58.5469 72.7969C59.3438 72.0938 60.1875 70.7344 61.125 68.8125C62.0625 66.8906 62.9531 64.6875 63.7031 62.2031C64.1719 60.75 64.7344 58.5469 65.2969 55.5938C65.9062 52.6406 66.4688 49.7344 66.9375 46.875C67.4062 44.0156 67.7344 42.0938 67.9219 41.0156C68.1094 39.9844 68.3438 39.2344 68.6719 38.8125C69.0469 38.3906 69.6094 38.1562 70.4062 38.1562C71.1562 38.1562 71.625 38.3438 71.9062 38.7656C72.1875 39.1875 72.3281 39.8906 72.3281 40.9219C72.3281 42.2344 72.0938 44.5312 71.625 47.8125C69.4688 64.9219 65.6719 74.625 60.2344 76.9219C59.0156 77.4375 57.7969 77.6719 56.625 77.6719C55.2656 77.6719 53.9062 77.3438 52.5938 76.6875C50.1562 75.4219 48.0938 73.2188 46.4062 70.0312C45.4688 68.25 44.7656 66.5156 44.2969 64.875C43.8281 63.2344 43.3125 61.0312 42.8438 58.1719C42.5156 56.1562 42.2344 54.8438 42 54.1406C41.7656 53.4844 41.5312 53.1562 41.25 53.1562L33.375 53.3438L28.2656 63.6094C19.1719 82.0781 11.3438 91.5938 4.82812 92.1562L3.1875 92.2969ZM36.1875 49.7812C37.4062 49.7812 38.625 49.6875 39.7969 49.5L41.5781 49.2188L41.6719 30.3281C40.3594 34.3125 39.0938 37.875 38.0156 40.9688C37.5938 42.1406 36.6562 44.5312 35.2031 48.2344C34.9219 49.0312 34.7344 49.5 34.7344 49.5469C34.7344 49.7344 35.2031 49.7812 36.1875 49.7812Z" fill="#007BFF"/>
<path d="M74.2031 75.4219C73.6406 75.4219 73.0781 75.3281 72.4688 75.0938C70.7812 74.4375 69.9375 73.4062 69.9375 71.9531C69.9375 71.4375 70.0781 70.9688 70.4062 70.5C70.7344 69.9844 71.3906 69.75 72.4219 69.75C73.7344 69.75 74.7656 70.0781 75.5156 70.6875C76.0781 71.25 76.3594 71.7656 76.4062 72.2812C76.4531 72.75 76.4531 73.0781 76.4531 73.2188C76.4531 73.875 76.2656 74.3906 75.8906 74.8125C75.5156 75.2344 74.9531 75.4219 74.2031 75.4219Z" fill="#007BFF"/>
</svg>
